{
    "asset" : {
        "generator" : "Khronos glTF Blender I/O v3.3.32",
        "version" : "2.0"
    },
    "scene" : 0,
    "scenes" : [
        {
            "name" : "Scene",
            "nodes" : [
                0
            ]
        }
    ],
    "nodes" : [
        {
            "mesh" : 0,
            "name" : "Sphere"
        }
    ],
    "meshes" : [
        {
            "name" : "Sphere",
            "primitives" : [
                {
                    "attributes" : {
                        "POSITION" : 0,
                        "NORMAL" : 1,
                        "TEXCOORD_0" : 2
                    },
                    "indices" : 3
                }
            ]
        }
    ],
    "accessors" : [
        {
            "bufferView" : 0,
            "componentType" : 5126,
            "count" : 2399,
            "max" : [
                1.0000019073486328,
                1,
                1.0000035762786865
            ],
            "min" : [
                -1.0000022649765015,
                -1,
                -1
            ],
            "type" : "VEC3"
        },
        {
            "bufferView" : 1,
            "componentType" : 5126,
            "count" : 2399,
            "type" : "VEC3"
        },
        {
            "bufferView" : 2,
            "componentType" : 5126,
            "count" : 2399,
            "type" : "VEC2"
        },
        {
            "bufferView" : 3,
            "componentType" : 5123,
            "count" : 13536,
            "type" : "SCALAR"
        }
    ],
    "bufferViews" : [
        {
            "buffer" : 0,
            "byteLength" : 28788,
            "byteOffset" : 0,
            "target" : 34962
        },
        {
            "buffer" : 0,
            "byteLength" : 28788,
            "byteOffset" : 28788,
            "target" : 34962
        },
        {
            "buffer" : 0,
            "byteLength" : 19192,
            "byteOffset" : 57576,
            "target" : 34962
        },
        {
            "buffer" : 0,
            "byteLength" : 27072,
            "byteOffset" : 76768,
            "target" : 34963
        }
    ],
    "buffers" : [
        {
            "byteLength" : 103840,
            "uri" : "data:application/octet-stream;base64,"
        }
    ]
}
